<svg id="Capa_1" data-name="Capa 1" xmlns="http://www.w3.org/2000/svg" viewBox="0 0 1007.71 1291.85"><defs><style>.cls-1,.cls-8{fill:#fff;}.cls-1{fill-rule:evenodd;}.cls-2{fill:#366246;}.cls-3{fill:#322e2d;}.cls-4{fill:#b94817;}.cls-5{fill:#557bb0;}.cls-6{fill:#94597e;}.cls-7{fill:#a43742;}.cls-9{fill:#6b984e;}.cls-10{fill:#676664;}.cls-11{fill:#23211b;}.cls-12{fill:#b288a3;}</style></defs><title>logo</title><path class="cls-1" d="M387.64,1452.35h895.51c16.79,0.46,40.55-13.92,40.61-23.47V1088c0.43-11.48-23.52-30-40.52-30h-82.44c1-54.11-6.1-87-64.87-112.64l-0.06-10.81c138.14-76.69,218.39-197,218.39-346,0-236.45-218.66-428.14-501.72-428.14S350.8,352.19,350.8,588.65c0,148.94,80.25,269.29,218.39,346l-0.06,10.81c-43,29.21-59.07,70-57.36,112.64H387.06c-20.91,0-40.25,16.53-40.52,30.2v340.48c-0.07,11.31,23.54,23.78,41.1,23.59h0Z" transform="translate(-346.54 -160.51)"/><path class="cls-2" d="M668.06,983.85l-15.89,16Q637.09,983.63,617,983.62q-17.5,0-29.33,11.83a38.93,38.93,0,0,0-11.86,28.67,40.07,40.07,0,0,0,12.27,29.63q12.26,12.12,30.28,12.15c7.79,0,14.39-1.69,19.77-5s9.67-8.57,12.93-15.67H616.71v-21.55h59.68l0.15,5.07a59.92,59.92,0,0,1-8.05,30,57.2,57.2,0,0,1-20.88,21.67c-8.57,4.95-18.58,7.45-30.09,7.45q-18.48,0-33-8.18a59,59,0,0,1-22.87-23.25,65.48,65.48,0,0,1-8.45-32.54,61.08,61.08,0,0,1,15.58-41.68q18.48-21.08,48.06-21.08A71.56,71.56,0,0,1,645.8,967q11.39,4.92,22.26,16.85h0Z" transform="translate(-346.54 -160.51)"/><path class="cls-2" d="M705.41,964.18h23.95c13.08,0,22.4,1.21,28,3.54a28.92,28.92,0,0,1,13.38,11.88c3.42,5.54,5.11,12.06,5.11,19.6,0,8-1.87,14.55-5.59,19.89s-9.37,9.37-16.89,12.12l28.09,53.62H756.75L730,1033.73h-2v51.1H705.41V964.18h0ZM728,1011.33h7.05q10.76,0,14.86-2.85t4-9.56a11.82,11.82,0,0,0-2-6.87,11,11,0,0,0-5.41-4.17c-2.23-.86-6.37-1.27-12.36-1.27H728v24.73h0Z" transform="translate(-346.54 -160.51)"/><path class="cls-2" d="M805.5,964.18h22.64v78c0,6.71.57,11.47,1.73,14.24a14,14,0,0,0,5.74,6.68,17.7,17.7,0,0,0,9.64,2.49,18.3,18.3,0,0,0,10.29-2.77,14.5,14.5,0,0,0,5.94-7.06c1.12-2.9,1.66-8.35,1.66-16.43V964.18h22.68v71.94q0,18.2-2,25.24A38.3,38.3,0,0,1,863,1084.7a43.76,43.76,0,0,1-17.27,3.17,41.46,41.46,0,0,1-22.45-6,34.64,34.64,0,0,1-13.66-15.11c-2.72-6-4.1-16.27-4.1-30.62V964.18h0Z" transform="translate(-346.54 -160.51)"/><path class="cls-2" d="M918.56,964.18H942.5q19.46,0,28,3.67a28.7,28.7,0,0,1,13.56,11.79c3.3,5.48,4.95,12,4.95,19.56,0,8.42-2.15,15.45-6.49,21a33.61,33.61,0,0,1-17.61,11.67c-4.34,1.24-12.29,1.87-23.79,1.87v51.1H918.56V964.18h0Zm22.56,47.15h7.18c5.64,0,9.56-.38,11.77-1.2a10.63,10.63,0,0,0,5.23-4.09,12.41,12.41,0,0,0,1.88-6.87c0-4.66-1.77-8-5.34-10.21-2.56-1.59-7.36-2.36-14.35-2.36h-6.37v24.73h0Z" transform="translate(-346.54 -160.51)"/><path class="cls-2" d="M1073.76,961.14q25.16,0,43.29,18.53t18.12,45.21q0,26.39-17.89,44.68a58.24,58.24,0,0,1-43.36,18.32q-26.72,0-44.37-18.79a62.7,62.7,0,0,1-17.7-44.6,63.48,63.48,0,0,1,8.21-31.85,61.58,61.58,0,0,1,22.65-23,60,60,0,0,1,31.05-8.51h0Zm-0.27,22.48a36.88,36.88,0,0,0-27.67,11.67q-11.22,11.58-11.2,29.58c0,13.36,4.67,23.88,14.12,31.65a38.12,38.12,0,0,0,25.18,9.09,36.39,36.39,0,0,0,27.35-11.79c7.53-7.87,11.29-17.55,11.29-29.11s-3.79-21.2-11.36-29.14a36.82,36.82,0,0,0-27.71-11.95h0Z" transform="translate(-346.54 -160.51)"/><polygon class="cls-3" points="205.12 935.82 140.68 935.82 140.68 1059.11 119.95 1059.11 119.95 935.82 55.53 935.82 55.53 1243.23 119.95 1243.23 119.95 1097.34 140.68 1097.34 140.68 1243.23 205.12 1243.23 205.12 935.82 205.12 935.82"/><path class="cls-3" d="M667.53,1156.44c-39,0-70.58,13.92-70.58,54.2v145.88c0,40.32,31.59,54.25,70.58,54.25s70.58-13.93,70.58-54.25v-48h-60.6v55.38a10,10,0,1,1-20,0v-66.32h80.56v-87c0-40.28-31.58-54.2-70.58-54.2h0Zm10,104.55h-20v-60.1a10,10,0,1,1,20,0V1261h0Z" transform="translate(-346.54 -160.51)"/><path class="cls-3" d="M885.44,1156.44a81.36,81.36,0,0,0-21.5,2.49c-7.87,2.15-13.05,5.57-16.12,9.58v-12.07h-66v247.31h66V1192.57a9.72,9.72,0,0,1,6.14-2.24,10.07,10.07,0,0,1,10,10.15v59.68h62.91v-61.62c0-23.26-18.54-42.11-41.41-42.11h0Z" transform="translate(-346.54 -160.51)"/><polygon class="cls-3" points="686.96 1207.32 686.96 1096.41 745.63 1096.41 745.63 1059.11 686.96 1059.11 686.96 975.89 751.39 975.89 751.39 935.82 622.52 935.82 622.52 1243.23 751.39 1243.23 751.39 1207.32 686.96 1207.32 686.96 1207.32"/><path class="cls-3" d="M1285.14,1253.41v-49.53c0-40.51-32.27-54.62-72.11-54.62s-72.11,14.11-72.11,54.62c0,0-.16,30.91,0,33.84a47.54,47.54,0,0,0,3.37,15.69c4.53,11.31,14.89,25,38.57,37.47a202.17,202.17,0,0,1,18.38,10.81c3.27,2.19,6,4.21,8.37,6.12,8.41,6.79,12.12,9,12.12,14.9V1360a10.25,10.25,0,1,1-20.5,0v-52.22h-60.32v47.7c0,40.47,32.28,54.6,72.11,54.6s72.11-14.13,72.11-54.6v-28.77a88.92,88.92,0,0,0-1.57-18.93c-3.57-16.54-14.71-27.5-46.52-43.47a106.32,106.32,0,0,1-15.31-9.32,26.42,26.42,0,0,1-2.11-1.61c-13.16-10.33-18.39-16.12-18.39-26.89v-22.7a10.25,10.25,0,1,1,20.5,0v49.59h63.4Z" transform="translate(-346.54 -160.51)"/><path class="cls-2" d="M846,244.26c221.14,0,401,144.4,401,321.88S1067.16,888.05,846,888.05s-401-144.4-401-321.91S624.93,244.26,846,244.26h0ZM846,213c-238.4,0-431.68,158.08-431.68,353.1S607.62,919.27,846,919.27s431.72-158.1,431.72-353.13S1084.47,213,846,213h0Z" transform="translate(-346.54 -160.51)"/><path class="cls-4" d="M846,845.47c196,0,354.92-125.05,354.92-279.33H846V845.47h0ZM1102,591.41h44.55a231.74,231.74,0,0,1-24.95,82.15h-44.13A238.22,238.22,0,0,0,1102,591.41h0Zm-113.72,0h66.23a241.61,241.61,0,0,1-23.9,82.15H967.33a262.74,262.74,0,0,0,20.92-82.15h0Zm-116.43,0h74c-2.39,30.35-8.83,58.35-18.31,82.15H871.82V591.41h0Zm0,118.84h36.57c-10.66,15.56-23,27.39-36.57,34.41V710.24h0Zm0,57.24c28.93-8.7,54.76-29,74.79-57.24h61.18c-33.31,43.82-81.4,74-136,81.8V767.48h0Zm182.64-57.24h43.94c-49.47,65.18-131.64,110.41-226.58,118.33v-16c75.21-8.19,140.65-46.69,182.64-102.32h0Z" transform="translate(-346.54 -160.51)"/><path class="cls-5" d="M871.82,287.65c-0.24,0-.5,0-0.77,0-8.25-.46-16.58-0.77-25-0.77v279.3h354.92c0-147.44-145.18-268.06-329.13-278.48h0Zm0,17.64C963,312.9,1042.36,354.9,1092.33,416H1051c-42.06-53.24-106-89.85-179.18-97.82V305.29h0Zm0,32c53.26,7.62,100.32,36.58,133.51,78.73h-61c-19.69-26.67-44.67-45.84-72.53-54.19V337.26h0Zm0,47.42c12.62,6.52,24.25,17.26,34.38,31.31H871.82V384.67h0Zm0,150.26v-82.3h54.45c9.83,23.72,16.59,51.77,19.31,82.3H871.82Zm116.16,0a258.61,258.61,0,0,0-22.1-82.3h63.06a240.67,240.67,0,0,1,25.17,82.3H988Zm113.41,0a238.89,238.89,0,0,0-26.4-82.3h42.52a235.11,235.11,0,0,1,28.05,82.3h-44.18Z" transform="translate(-346.54 -160.51)"/><path class="cls-6" d="M491.14,566.14C491.14,720.41,650,845.48,846,845.48V566.14H491.14ZM691.9,591.4c2.76,29.8,10.05,57.69,21,82.15h-55.8a240.5,240.5,0,0,1-23.91-82.15H691.9ZM537,591.4h44.55a237.64,237.64,0,0,0,24.52,82.15H562A232.23,232.23,0,0,1,537,591.4h0ZM813.4,828.68c-95.64-7.53-178.49-52.88-228.24-118.44h43.9C671.37,766.32,737.49,805,813.4,812.76v15.92h0Zm0-37c-53.61-8.32-100.75-38.28-133.56-81.44h53.73c21.18,29.9,48.82,50.85,79.83,58.62v22.83h0Zm0-47.61c-13.12-7.05-25.15-18.69-35.54-33.83H813.4v33.83h0Zm0-70.52H758.76c-9.45-23.8-15.9-51.79-18.31-82.15h73v82.15h0Z" transform="translate(-346.54 -160.51)"/><path class="cls-7" d="M846,286.83c-8.41,0-16.73.31-25,.77-2.54.13-5.1,0.28-7.59,0.47-180.73,13-322.27,132.5-322.27,278.06H846V286.83h0ZM582.17,534.93H538A234.55,234.55,0,0,1,566,452.63h42.52a238.52,238.52,0,0,0-26.37,82.3h0Zm110,0H633.48a240.81,240.81,0,0,1,25.18-82.3h55.6a261.21,261.21,0,0,0-22.1,82.3h0Zm121.25,0H740.72c2.68-30.53,9.43-58.58,19.26-82.3h53.43v82.3h0Zm0-118.94H780.05c9.86-13.67,21.15-24.21,33.36-30.81V416h0Zm0-55.54c-29.9,7.5-56.69,27.28-77.57,55.54H682.3c32.69-41.54,78.79-70.26,131.1-78.38v22.84h0Zm0-42.47c-73.89,7.56-138.51,44.37-180.89,98H591.19c50.27-61.43,130.33-103.56,222.21-110.8V318h0Z" transform="translate(-346.54 -160.51)"/><path class="cls-8" d="M1087.1,424.28c-9.52-34.42-57.24-50.82-106.65-36.62-3.62,1.07-7.15,2.3-10.6,3.6-2.64-6.12-7.15-10.12-12.24-10.12-8.15,0-14.75,10.25-14.75,22.89,0,0.48.07,0.93,0.07,1.35-26.84,18.73-41.47,45.83-34.68,70.42,9.52,34.42,57.29,50.82,106.66,36.57s81.72-53.67,72.2-88.09h0Z" transform="translate(-346.54 -160.51)"/><path class="cls-5" d="M979.48,519.19c-17.19,0-33.32-3.7-46.27-10.94-13.75-7.69-23-18.75-26.62-32-6.72-24.4,6.52-51.81,34.57-71.73,0-.16,0-0.32,0-0.49,0-13.56,7.38-24.6,16.46-24.6,5.21,0,10,3.59,13.12,9.69,3.31-1.23,6.35-2.24,9.23-3.1,29.72-8.54,60.45-6.35,82.2,5.82,13.73,7.68,22.92,18.74,26.59,32,9.76,35.3-23.15,75.77-73.37,90.19A130.17,130.17,0,0,1,979.48,519.19ZM957.61,382.84c-7.2,0-13,9.51-13,21.19l0,0.61a6.15,6.15,0,0,1,0,.74v0.89l-0.74.51c-27.37,19.11-40.4,45.38-34,68.57,3.41,12.35,12.05,22.69,25,29.93,21,11.74,50.76,13.8,79.55,5.46,48.45-13.91,80.31-52.49,71-86-3.41-12.34-12-22.68-25-29.91-20.93-11.75-50.73-13.81-79.58-5.52-3.21.95-6.63,2.11-10.47,3.56l-1.53.57-0.63-1.49C965.81,386.25,961.82,382.84,957.61,382.84Z" transform="translate(-346.54 -160.51)"/><path class="cls-8" d="M687.18,433s7.87-8.75,9.45-17.3c0,0,23.73.32,24.52-11.82s-6.33-12.12-6.33-12.12,10.29-25.27-18.19-16.67c0,0-15-14.07-18.16,4.54,0,0-27.69-4.78-25.31,19.85,0,0-19,24.77,15,16.22,0,0,4,18.12,19,17.3h0Z" transform="translate(-346.54 -160.51)"/><path class="cls-7" d="M686.21,434.73c-12.63,0-17.74-12.41-19.21-17-10.69,2.47-17.15,1.79-19.71-2.11-3.51-5.36,2.35-14.2,4.12-16.65-0.54-7,1.21-12.38,5.19-16.08,6.38-5.92,16.53-5.59,20.51-5.17,1.13-4.93,3.3-8,6.48-9,5.27-1.74,11.35,2.74,13.46,4.5,9-2.58,15.3-2,18.67,1.7,4.09,4.5,2.42,12.12,1.33,15.64a7.77,7.77,0,0,1,2.87,2c2.28,2.44,3.27,6.3,2.94,11.49-0.77,11.9-19.48,13.26-24.85,13.4-2.13,8.43-9.23,16.4-9.56,16.75a1.71,1.71,0,0,1-1.17.56C686.91,434.72,686.56,434.73,686.21,434.73Zm-18-20.74a1.67,1.67,0,0,1,.89.25,1.69,1.69,0,0,1,.77,1.09c0.15,0.66,3.68,16,16.36,16h0.16c1.66-2,7.31-9.12,8.57-15.93a1.72,1.72,0,0,1,1.68-1.39,0.7,0.7,0,0,0,.44,0c6.43,0,21.83-1.8,22.37-10.23,0.27-4.1-.41-7.18-2-8.89a4.13,4.13,0,0,0-2.7-1.43,1.73,1.73,0,0,1-1.55-2.34c1.09-2.67,3.18-10.39-.05-13.94-2.48-2.72-8-2.88-16.06-.45a1.76,1.76,0,0,1-1.66-.39c-1.76-1.63-7.11-5.63-10.79-4.4-2.23.75-3.75,3.44-4.52,8a1.7,1.7,0,0,1-.69,1.1,1.83,1.83,0,0,1-1.27.29c-0.14,0-12.63-2.07-19.27,4.11-3.28,3.05-4.65,7.73-4.05,13.9a1.67,1.67,0,0,1-.34,1.19c-1.83,2.39-6.55,9.95-4.39,13.25,1,1.51,4.6,3.58,17.64.29A1.91,1.91,0,0,1,668.19,414Z" transform="translate(-346.54 -160.51)"/><path class="cls-8" d="M729.81,421.9c-1.62-12.94,19-19.44,16.41-27.53s-16.41-16.21-16.41-16.21S723,363.58,738.14,366s33.78,20.28,31.35,33.65S742,436.48,729.81,421.9h0Z" transform="translate(-346.54 -160.51)"/><path class="cls-7" d="M739.46,428.22a13.82,13.82,0,0,1-11-5.23,1.72,1.72,0,0,1-.38-0.89c-1-7.86,5.23-13.52,10.23-18.06,3.81-3.48,7.11-6.47,6.25-9.16-2.4-7.38-15.52-15.19-15.65-15.27a1.72,1.72,0,0,1-.68-0.75c-0.37-.78-3.48-7.73-0.27-12,1.88-2.52,5.39-3.38,10.42-2.56,9.66,1.54,21,9.16,27.67,18.53,4.27,6,6,11.94,5.09,17.1-1.77,9.7-14.55,24.34-26.94,27.59A18.73,18.73,0,0,1,739.46,428.22Zm-8-7c3,3.34,7,4.38,11.93,3.08,11.06-2.91,22.88-16.35,24.44-24.91,0.76-4.17-.85-9.33-4.52-14.52-6.15-8.68-16.6-15.72-25.42-17.14-2.5-.38-5.83-0.52-7.15,1.24-1.53,2-.32,6.2.43,8,2.55,1.57,14.13,9,16.68,16.87,1.55,4.77-2.7,8.63-7.2,12.72C735.9,410.88,731,415.33,731.44,421.19Z" transform="translate(-346.54 -160.51)"/><path class="cls-8" d="M758.55,446.65s-1.64-15.8,7.36-15.85,11.87,16.63,3.48,26.65-23.12,10.84-28.84,0,12.28-5.86,18-10.8h0Z" transform="translate(-346.54 -160.51)"/><path class="cls-7" d="M753.64,467a17.58,17.58,0,0,1-1.92-.1A15.88,15.88,0,0,1,739,458.24c-1.43-2.71-1.69-4.86-.78-6.6,1.55-2.94,5.77-3.42,10.24-3.93,3-.35,6.33-0.72,8.28-1.89-0.15-2.71-.21-10.22,3.32-14.17a7.56,7.56,0,0,1,5.8-2.57c3.61,0,6.71,2.21,8.52,6.07,2.75,5.89,2.38,16.08-3.72,23.38A22.8,22.8,0,0,1,753.64,467Zm12.27-34.47a4.19,4.19,0,0,0-3.27,1.43c-2.72,3-2.65,10.08-2.4,12.54a1.71,1.71,0,0,1-.59,1.46c-2.57,2.22-6.74,2.7-10.77,3.16-3.08.35-6.91,0.79-7.61,2.13-0.33.63-.06,1.85,0.77,3.41a12.55,12.55,0,0,0,10,6.84c5.61,0.55,11.79-2.13,16-7.13,5.2-6.21,5.56-14.81,3.25-19.75C770.46,434.73,768.81,432.5,765.91,432.5Z" transform="translate(-346.54 -160.51)"/><path class="cls-8" d="M694.44,448.23s19.49,7.17,22.74,0S714,424,720.49,424.3s19.57,17.57,9.75,34-39.86,1.2-35.81-10.08h0Z" transform="translate(-346.54 -160.51)"/><path class="cls-7" d="M716.63,467.28a29.23,29.23,0,0,1-12.25-2.91c-8.84-4.17-13.59-11-11.55-16.72a1.71,1.71,0,0,1,2.19-1c5.87,2.16,18.61,5.22,20.61.89,1.23-2.73.82-7.61,0.47-11.91-0.43-5.17-.8-9.64,1.28-11.81a4.57,4.57,0,0,1,3.18-1.21c3.68,0.15,8.39,4.25,11.48,10,2.23,4.12,6.64,15-.33,26.62C728.27,465,722.63,467.28,716.63,467.28ZM695.79,450.5c0.12,3.6,4.07,8,10.06,10.79,8,3.78,18.23,4.06,22.94-3.84,6.08-10.17,2.21-19.66.26-23.26-2.71-5-6.5-8.1-8.62-8.18-0.54,0-.53.09-0.59,0.16-1,1.06-.64,5.55-0.34,9.16,0.41,4.95.83,10.07-.76,13.6C715.45,456.09,701.23,452.26,695.79,450.5Z" transform="translate(-346.54 -160.51)"/><path class="cls-8" d="M756.71,492.58s-5.76-14.1,0-15.76,22.83,12.45,17.61,22.42-23,18.84-28.93,11.91S751,500,756.71,492.58h0Z" transform="translate(-346.54 -160.51)"/><path class="cls-7" d="M751.61,515.31a9.5,9.5,0,0,1-7.52-3.06,7.37,7.37,0,0,1-2.07-5.39c0.29-3.52,3.58-6.31,7.09-9.26a47.48,47.48,0,0,0,5.65-5.32c-1-2.78-3.55-10.41-1.57-14.49a4.79,4.79,0,0,1,3.05-2.6c4.41-1.32,11.8,3.7,16.14,9,4.54,5.57,5.8,11.34,3.44,15.82-3.83,7.28-14.07,14.23-22.36,15.17A15.45,15.45,0,0,1,751.61,515.31Zm6.2-36.94a2.22,2.22,0,0,0-.62.08,1.4,1.4,0,0,0-.92.82c-1.24,2.56.59,9.12,2,12.66a1.71,1.71,0,0,1-.23,1.69,44.8,44.8,0,0,1-6.75,6.57c-2.94,2.48-5.72,4.82-5.89,6.93a4.08,4.08,0,0,0,1.26,2.91c1.63,1.9,4.38,2,6.4,1.79,7.19-.82,16.41-7.07,19.72-13.38,2.4-4.57-1.35-10-3.07-12.08C765.88,481.61,760.41,478.37,757.81,478.37Z" transform="translate(-346.54 -160.51)"/><path class="cls-8" d="M632.84,431s-16.85,9.65-8.42,34c0,0-8.43,17.75-14.33-13.49S639.67,424,632.84,431h0Z" transform="translate(-346.54 -160.51)"/><path class="cls-7" d="M618.92,471.75a5.25,5.25,0,0,1-.6,0c-4.31-.55-7.45-6.87-9.9-19.85-3.38-17.87,6.46-24,10.84-25.8,6-2.48,13.43-1.86,15.56,1.3,1,1.52.74,3.34-.76,4.87a1.85,1.85,0,0,1-.36.29c-0.64.37-15.51,9.33-7.67,32a1.7,1.7,0,0,1-.07,1.29C625.65,466.39,623,471.75,618.92,471.75ZM627,427.92a16.84,16.84,0,0,0-4.4.61c-4.32,1.16-14,5.72-10.81,22.7,2.91,15.41,6.09,17,7,17.1,1.23,0.26,2.94-1.91,3.81-3.45-7.68-23.21,7-33.79,9.18-35.17a1.06,1.06,0,0,0,.27-0.43C631.83,428.78,629.91,427.92,627,427.92Z" transform="translate(-346.54 -160.51)"/><path class="cls-8" d="M637.25,452.82s3.27,17.53,20.42,16.27,8.15,12.92,0,14.59-24.42-7-26.09-19.35,2-19.82,5.67-11.51h0Z" transform="translate(-346.54 -160.51)"/><path class="cls-7" d="M655.46,485.59c-4.52,0-10.14-2-15.07-5.5-6-4.25-9.72-9.76-10.5-15.53-1-7.36-.33-15.78,3.5-16.85,1.44-.39,3.51,0,5.43,4.42a2.23,2.23,0,0,1,.11.37c0.12,0.66,3.31,16.22,18.62,14.89,9.29-.71,11.23,3.08,11.54,5.36,0.72,5.18-5.63,11.49-11.07,12.6A12.78,12.78,0,0,1,655.46,485.59ZM634.06,451c-0.46.49-1.9,5-.79,13.1,0.89,6.51,6.08,11.07,9.1,13.21,5,3.55,11.18,5.44,15,4.7,4.42-.9,8.77-6,8.39-8.79-0.25-1.9-3.16-2.81-7.91-2.43-0.64,0-1.27.07-1.87,0.07-15.81,0-19.84-15.48-20.29-17.52C634.7,451.28,634.07,451,634.06,451Z" transform="translate(-346.54 -160.51)"/><path class="cls-8" d="M636.19,490.08s14.87-.72,18.17,5.15-7.39,19.38-22.26,10.08-4.91-31.72-.4-23.49l4.49,8.26h0Z" transform="translate(-346.54 -160.51)"/><path class="cls-7" d="M642.05,510.17a20.34,20.34,0,0,1-10.84-3.43c-8.12-5.06-9.58-13.7-8.25-20.1,1-4.64,3.28-7.89,5.91-8.28,1-.1,2.9,0,4.33,2.63l4,7.34c3.67-.16,15.39.23,18.67,6,1.81,3.22.48,8.09-3.18,11.59A15.34,15.34,0,0,1,642.05,510.17Zm-12.67-28.44h0c-0.66.1-2.3,1.9-3.07,5.6-1.1,5.27.08,12.38,6.71,16.52,9.5,6,15.65,1.26,17.31-.34,2.47-2.35,3.59-5.63,2.56-7.44-2.28-4.05-13.09-4.49-16.6-4.29a1.68,1.68,0,0,1-1.58-.89l-4.49-8.26A1.58,1.58,0,0,0,629.38,481.74Z" transform="translate(-346.54 -160.51)"/><path class="cls-8" d="M684.13,500.27s-1.39,10.33,8.14,12.5c0,0,3-14.7,8.65-6.25s11.32,10.9,20,10.9,14.34,5.74,0,12.26-25.84-8.18-25.84-8.18,0.08,13.88-14.85,5.74-17.35-18.93-15-33.52S675.64,479,678,486.39a84.06,84.06,0,0,0,6.12,13.87h0Z" transform="translate(-346.54 -160.51)"/><path class="cls-7" d="M713.51,533c-7.73,0-14-4.76-17.29-7.87a8.82,8.82,0,0,1-3.76,5.24c-3.16,1.88-7.54,1.31-13-1.68-17.43-9.54-17.91-22.6-15.84-35.3,1.95-11.78,6.93-13.4,9-13.56a3.83,3.83,0,0,1,.42,0c2.91,0,5.43,2.26,6.64,6a82.33,82.33,0,0,0,6,13.56,1.73,1.73,0,0,1,.21,1.07c0,0.33-.89,7.61,5.22,10.1,0.81-3,2.59-7.71,5.79-8.34,1.93-.44,3.79.72,5.52,3.31,5,7.49,9.85,10.14,18.59,10.14,5.6,0,9.66,2.07,10.36,5.28,0.52,2.43-.72,6.18-9.65,10.24A19.49,19.49,0,0,1,713.51,533Zm-18.42-13.25a1.69,1.69,0,0,1,1.34.66c0.43,0.55,10.81,13.55,23.8,7.68,6.55-3,7.94-5.44,7.72-6.43-0.27-1.24-3-2.59-7-2.59-9.83,0-15.84-3.27-21.42-11.65-1-1.56-1.7-2-2-1.86-1.19.23-2.85,4.15-3.54,7.51a1.7,1.7,0,0,1-.75,1.09,1.68,1.68,0,0,1-1.3.23c-8.34-1.89-9.87-9.53-9.51-13.8a84.1,84.1,0,0,1-6-13.71c-0.76-2.33-2.3-3.78-3.57-3.64-2.07.15-4.69,3.53-5.88,10.71-2.16,13.23-.59,23.71,14.11,31.75,4.3,2.34,7.64,3,9.64,1.74,2.63-1.57,2.68-5.93,2.68-6a1.7,1.7,0,0,1,1.14-1.62A1.79,1.79,0,0,1,695.09,519.79Z" transform="translate(-346.54 -160.51)"/><path class="cls-8" d="M684.22,455.75s1.14,18.57,13.67,18.57c0,0,8.43,5.49-2.09,9.5s-32.78-7-11.57-28.07h0Z" transform="translate(-346.54 -160.51)"/><path class="cls-7" d="M691,486.32c-5.66,0-12.12-2.55-15.33-7.51-2.49-3.86-4.86-12.14,7.34-24.28a1.71,1.71,0,0,1,2.91,1.1c0,0.17,1.19,17,12,17a1.67,1.67,0,0,1,.93.28c0.44,0.29,4.33,2.93,3.95,6.54-0.26,2.46-2.4,4.47-6.36,6A15.24,15.24,0,0,1,691,486.32Zm-8-26.79c-5.83,6.73-7.43,12.85-4.46,17.43,3.4,5.26,11.75,7.15,16.64,5.26,2.55-1,4.07-2.12,4.18-3.15s-1.17-2.38-2.05-3.06C687.39,475.63,684.09,465.26,683,459.53Z" transform="translate(-346.54 -160.51)"/><path class="cls-8" d="M719.48,483.47c10.72,0.51,12.38-20.06,18.2-14.33s8.21,26.71-4.62,30.91-27.65-17.22-13.59-16.58h0Z" transform="translate(-346.54 -160.51)"/><path class="cls-7" d="M729.56,502.31c-5.55,0-10.67-3.46-13.74-7-3.29-3.76-4.52-7.78-3.22-10.48,0.72-1.52,2.4-3.32,7-3.09h0c4.65,0.29,7.31-4.61,9.73-8.89,1.84-3.26,3.44-6.07,5.93-6.42a4.39,4.39,0,0,1,3.66,1.46c4.3,4.28,6.37,14.43,4.53,22.18-1.41,5.93-4.8,9.93-9.81,11.56A13.09,13.09,0,0,1,729.56,502.31ZM718.9,485.16c-1.17,0-2.76.19-3.23,1.18-0.56,1.17.18,3.87,2.71,6.75,3.38,3.86,9.1,7,14.16,5.34,4.83-1.58,6.77-5.83,7.56-9.11,1.69-7.11-.52-15.88-3.61-19a1.92,1.92,0,0,0-.79-0.52c-0.82.12-2.39,2.89-3.43,4.72-2.61,4.62-6.27,10.85-12.85,10.61h0Z" transform="translate(-346.54 -160.51)"/><path class="cls-8" d="M661.65,430.94c5.33,7.46,7.56,10.89,12.6,12.32s-3.36,16.41-17.63,8-0.26-27.73,5-20.35h0Z" transform="translate(-346.54 -160.51)"/><path class="cls-7" d="M665,455.52a18.38,18.38,0,0,1-9.26-2.75c-5.22-3.05-7.75-8-6.92-13.68,0.79-5.39,4.52-10.36,8.51-11.33a5.27,5.27,0,0,1,5.69,2.19h0l0.8,1.13c4.72,6.62,6.67,9.36,10.88,10.55a3.61,3.61,0,0,1,2.64,3c0.46,2.74-1.56,6.36-4.81,8.59A13.17,13.17,0,0,1,665,455.52ZM658.7,431a2.38,2.38,0,0,0-.55.07c-2.3.56-5.3,4.19-5.93,8.51-0.44,3,.12,7.23,5.27,10.24,6.54,3.86,11,2,13.12.58,2.49-1.71,3.57-4.13,3.38-5.22-5.56-1.8-8-5.26-12.93-12.13l-0.8-1.12A1.87,1.87,0,0,0,658.7,431Z" transform="translate(-346.54 -160.51)"/><path class="cls-8" d="M632.82,389.43s-16.65,9.18-16.65,21.7,3.82,17.65,14.9,4.68,23.51-26.38,1.75-26.38h0Z" transform="translate(-346.54 -160.51)"/><path class="cls-7" d="M620.92,425.09a4.89,4.89,0,0,1-1.7-.3c-3.24-1.2-4.76-5.54-4.76-13.66,0-13.37,16.81-22.79,17.53-23.19a1.72,1.72,0,0,1,.82-0.21c7.48,0,11.66,1.5,13.15,4.74,2.56,5.56-4.25,13.52-12.13,22.74l-1.46,1.7C627.65,422.44,624,425.09,620.92,425.09Zm12.35-34c-2.38,1.42-15.4,9.63-15.4,20,0,8.85,1.93,10.24,2.53,10.47s3.12,0.42,9.38-6.89l1.46-1.71c5.91-6.91,13.27-15.53,11.62-19.1C642.07,392.16,638.67,391.19,633.27,391.13Z" transform="translate(-346.54 -160.51)"/><path class="cls-8" d="M679.72,360.05s5.66-16.91,21.25-13.48,13.51,6,15,17.19-4.53,3.44-15.83,0-14.86-1.42-20.41-3.72h0Z" transform="translate(-346.54 -160.51)"/><path class="cls-7" d="M714.43,371.32c-1.6,0-3.54-1-6.08-2.23a55.11,55.11,0,0,0-8.72-3.68,50.64,50.64,0,0,0-12.71-2.27,22.84,22.84,0,0,1-7.85-1.5,1.7,1.7,0,0,1-1-2.11c0.07-.18,6.41-18.32,23.24-14.6,14,3.11,15,6,15.86,14.66,0.12,1.19.25,2.5,0.45,4,0.38,3,.48,5.9-1.34,7.19A3.14,3.14,0,0,1,714.43,371.32ZM682,359a25.49,25.49,0,0,0,5.19.7,54,54,0,0,1,13.47,2.4,58.16,58.16,0,0,1,9.24,3.9c1.75,0.87,4.06,1.95,4.57,1.87a19.29,19.29,0,0,0-.16-3.92c-0.2-1.5-.34-2.85-0.46-4.08-0.74-7.41-.89-8.95-13.21-11.67C689.27,345.75,683.72,355.16,682,359Z" transform="translate(-346.54 -160.51)"/><path class="cls-8" d="M667,366.92s-12.1,3.92-15.81,9.66-14.2,11.06-12.68-9.66,23.18-15.07,25-16.17,19.39,6.51,3.51,16.17h0Z" transform="translate(-346.54 -160.51)"/><path class="cls-7" d="M643.64,383.44a5.74,5.74,0,0,1-1.83-.29c-4-1.36-5.69-6.87-5-16.35,1.39-18.39,17.7-17.86,23.81-17.63,0.89,0,2,.05,2.27,0,1.54-1,5.16.81,6.23,1.38,3.85,2.07,6.1,5,6.18,8.08,0.09,3.42-2.4,6.7-7.41,9.74a1.53,1.53,0,0,1-.36.16c-3.21,1-12.14,4.69-14.9,9C650.52,380.71,647,383.44,643.64,383.44Zm14.65-30.9c-9.09,0-17.16,2.22-18.08,14.51-0.79,10.82,1.87,12.59,2.7,12.87,1.95,0.71,5.19-1.72,6.86-4.28,3.77-5.82,14.84-9.72,16.52-10.28,3-1.87,6.38-4.69,5.44-7.59-1-3.24-6.31-5.43-7.63-5.43H664c-0.4.34-1.42,0.31-3.51,0.23C659.76,352.55,659,352.54,658.29,352.54Z" transform="translate(-346.54 -160.51)"/><path class="cls-8" d="M690.74,688.5s6.76-7.49,8.11-14.76c0,0,20.25.25,20.91-10.08s-5.4-10.38-5.4-10.38,8.79-21.57-15.51-14.21c0,0-12.84-12-15.5,3.87,0,0-23.62-4.1-21.6,16.92,0,0-16.22,21.16,12.81,13.88,0,0,3.38,15.46,16.17,14.76h0Z" transform="translate(-346.54 -160.51)"/><path class="cls-6" d="M689.94,690.22c-9.67,0-14.8-8.61-16.59-14.44-9.07,2.08-14.58,1.41-16.82-2-3.06-4.65,1.88-12.22,3.48-14.44-0.45-6,1.08-10.64,4.52-13.83,5.39-5,13.86-4.85,17.46-4.49,1-4.15,2.86-6.73,5.6-7.66,4.61-1.6,9.71,2.15,11.67,3.78,7.75-2.18,13.11-1.67,16,1.53,3.5,3.84,2.2,10.23,1.26,13.38a6.93,6.93,0,0,1,2.33,1.65c2,2.13,2.87,5.51,2.57,10-0.66,10.2-16.38,11.51-21.25,11.67-1.9,7.17-7.94,13.91-8.21,14.21a1.68,1.68,0,0,1-1.17.56ZM674.57,672a1.67,1.67,0,0,1,.89.25,1.7,1.7,0,0,1,.77,1.08c0.12,0.56,3.11,13.45,13.7,13.45h0c1.5-1.8,6.19-7.75,7.24-13.39a1.7,1.7,0,0,1,1.67-1.39h0c0.62,0,18.64-.13,19.17-8.49,0.23-3.5-.34-6.08-1.66-7.48a3.3,3.3,0,0,0-2-1.09,1.7,1.7,0,0,1-1.58-2.34c0.91-2.24,2.68-8.71,0-11.63-2.05-2.24-6.69-2.36-13.44-.3a1.73,1.73,0,0,1-1.66-.39c-1.48-1.38-6-4.76-9-3.7-2.24.76-3.23,4-3.66,6.6a1.71,1.71,0,0,1-2,1.4c-0.09,0-10.64-1.76-16.22,3.42-2.74,2.55-3.88,6.47-3.38,11.65a1.67,1.67,0,0,1-.34,1.19c-1.93,2.53-5.38,8.55-3.74,11,0.64,1,3.42,3,14.77.15A1.91,1.91,0,0,1,674.57,672Z" transform="translate(-346.54 -160.51)"/><path class="cls-8" d="M726.78,679.05c-1.34-11,16.31-16.6,14.06-23.52s-14.06-13.8-14.06-13.8-5.84-12.43,7.15-10.4,28.94,17.36,26.85,28.72-23.59,31.47-34,19h0Z" transform="translate(-346.54 -160.51)"/><path class="cls-6" d="M735,684.7a12.07,12.07,0,0,1-9.57-4.55,1.8,1.8,0,0,1-.39-0.89c-0.82-6.82,4.53-11.7,8.84-15.61,3.21-2.92,6-5.45,5.29-7.6-1.68-5.13-10.17-11-13.3-12.85a1.77,1.77,0,0,1-.68-0.75c-0.32-.68-3-6.72-0.21-10.48,1.67-2.23,4.76-3,9.16-2.33,8.37,1.34,18.2,7.92,23.91,16,3.66,5.19,5.16,10.27,4.35,14.71-1.53,8.34-12.54,21-23.23,23.78A16.39,16.39,0,0,1,735,684.7Zm-6.61-6.36c2.51,2.75,5.83,3.59,9.93,2.49,9.15-2.41,19.44-13.93,20.74-21.09,0.64-3.47-.7-7.78-3.78-12.12-5.23-7.4-14.13-13.4-21.66-14.61-2.09-.32-4.83-0.42-5.9,1-1.23,1.64-.26,5,0.37,6.54,2.34,1.43,12.15,7.79,14.33,14.45,1.38,4.25-2.32,7.61-6.24,11.17S728.13,673.52,728.42,678.34Z" transform="translate(-346.54 -160.51)"/><path class="cls-8" d="M751.33,699.88s-1.41-13.53,6.32-13.58,10.19,14.29,3,22.91-19.82,9.28-24.74,0,10.55-5,15.43-9.33h0Z" transform="translate(-346.54 -160.51)"/><path class="cls-6" d="M747.13,717.6a15.06,15.06,0,0,1-1.66-.09A13.84,13.84,0,0,1,734.4,710c-1.28-2.42-1.5-4.35-.67-5.93,1.39-2.62,5-3,8.93-3.49,2.49-.29,5.26-0.61,6.9-1.53-0.14-2.51-.14-8.75,2.93-12.18a6.79,6.79,0,0,1,5.16-2.28c3.19,0,5.93,1.95,7.51,5.35,2.4,5.14,2.09,14-3.21,20.35A19.83,19.83,0,0,1,747.13,717.6ZM757.66,688a3.33,3.33,0,0,0-2.63,1.15c-2.27,2.53-2.21,8.48-2,10.55a1.71,1.71,0,0,1-.57,1.46c-2.26,2-5.89,2.41-9.41,2.81-2.56.3-5.76,0.66-6.3,1.7-0.25.47,0,1.46,0.67,2.74a10.52,10.52,0,0,0,8.42,5.71c4.86,0.55,10-1.8,13.51-6,4.39-5.26,4.69-12.54,2.74-16.72C761.35,689.84,760,688,757.66,688Z" transform="translate(-346.54 -160.51)"/><path class="cls-8" d="M696.77,701.28s16.69,6.15,19.49,0-2.68-20.73,2.82-20.46,16.81,15,8.36,29.16-34.14,1-30.67-8.7h0Z" transform="translate(-346.54 -160.51)"/><path class="cls-6" d="M715.82,717.86a25.21,25.21,0,0,1-10.6-2.51c-7.71-3.64-11.85-9.66-10.06-14.66a1.71,1.71,0,0,1,.88-1,1.69,1.69,0,0,1,1.31-.06c6.15,2.27,15.88,4.1,17.35.9,1-2.28.68-6.43,0.38-10.09-0.37-4.49-.69-8.36,1.16-10.28a4.16,4.16,0,0,1,2.91-1.09c3.25,0.12,7.28,3.55,10,8.57a23,23,0,0,1-.27,23.17C725.92,715.86,721,717.86,715.82,717.86Zm-17.63-14.3c0.33,2.93,3.61,6.41,8.49,8.71,6.74,3.2,15.34,3.47,19.29-3.16a19.73,19.73,0,0,0,.21-19.8c-2.24-4.12-5.46-6.73-7.17-6.79-1.1.86-.76,5-0.53,7.68,0.35,4.28.72,8.69-.67,11.78C715,708.16,703.39,705.25,698.19,703.56Z" transform="translate(-346.54 -160.51)"/><path class="cls-8" d="M749.77,738.88s-5-12.07,0-13.51,19.61,10.67,15.1,19.23S745.14,760.74,740,754.78s4.8-9.48,9.76-15.9h0Z" transform="translate(-346.54 -160.51)"/><path class="cls-6" d="M745.38,758.61a8.4,8.4,0,0,1-6.66-2.72,6.47,6.47,0,0,1-1.83-4.77c0.25-3.12,3.12-5.54,6.17-8.12a41.36,41.36,0,0,0,4.76-4.43c-0.92-2.51-3-8.94-1.3-12.46a4.38,4.38,0,0,1,2.77-2.37c3.88-1.1,10.34,3.18,14.12,7.82,4,4.86,5,9.9,3,13.83-3.34,6.3-12.22,12.32-19.39,13.12A13,13,0,0,1,745.38,758.61ZM750.7,727a1.87,1.87,0,0,0-.45.05,1,1,0,0,0-.66.59c-1,2,.44,7.44,1.76,10.64a1.71,1.71,0,0,1-.23,1.69,39.15,39.15,0,0,1-5.86,5.7c-2.49,2.1-4.84,4.07-5,5.76a3.23,3.23,0,0,0,1,2.28c1.34,1.56,3.63,1.66,5.31,1.46,6.1-.69,13.93-6,16.75-11.32,2-3.79-1.15-8.32-2.59-10.09C757.33,729.49,752.69,727,750.7,727Z" transform="translate(-346.54 -160.51)"/><path class="cls-8" d="M644.82,686.54s-14.56,8.27-7.28,29.12c0,0-7.27,15.21-12.32-11.53s25.47-23.58,19.61-17.59h0Z" transform="translate(-346.54 -160.51)"/><path class="cls-6" d="M632.79,721.66a4.46,4.46,0,0,1-.55,0c-3.81-.5-6.58-6-8.69-17.19-3-15.47,5.61-20.8,9.43-22.38,5.4-2.23,11.82-1.66,13.74,1.19a3.4,3.4,0,0,1-.68,4.48,1.89,1.89,0,0,1-.37.29c-0.54.32-13.21,7.9-6.52,27.07a1.71,1.71,0,0,1-.07,1.29C638.8,716.95,636.44,721.66,632.79,721.66Zm7-37.56a14.64,14.64,0,0,0-5.11.95c-4,1.49-10.26,5.9-7.81,18.76,2.52,13.35,5.26,14.37,5.79,14.44h0.1c0.89,0,2.14-1.46,2.91-2.75-6.57-19.86,6-29,8-30.29a0.74,0.74,0,0,0,.15-0.24C643.63,684.66,642.06,684.1,639.8,684.1Z" transform="translate(-346.54 -160.51)"/><path class="cls-8" d="M648.27,705.08s2.8,15,17.53,13.95,7,11.08,0,12.51-21-6.08-22.4-16.64,1.78-17,4.87-9.82h0Z" transform="translate(-346.54 -160.51)"/><path class="cls-6" d="M664,733.42c-4,0-8.91-1.78-13.21-4.85-5.16-3.68-8.37-8.45-9.06-13.44-0.89-6.64-.23-13.75,3.21-14.7,1.29-.42,3.23,0,4.92,4a2,2,0,0,1,.11.36c0.11,0.53,2.57,12.61,14.43,12.61q0.64,0,1.29,0c8.27-.56,9.86,2.74,10.14,4.79,0.66,4.69-4.86,10.11-9.67,11.11A11.56,11.56,0,0,1,664,733.42ZM645.72,704c-0.59,1.1-1.45,4.59-.64,10.69,0.75,5.46,5.12,9.31,7.66,11.12,4.26,3,9.51,4.73,12.72,4.08,3.67-.76,7.3-5,7-7.29-0.21-1.45-2.67-2.17-6.51-1.85-15.11,1-18.85-13.19-19.28-15.12A7.29,7.29,0,0,0,645.72,704Z" transform="translate(-346.54 -160.51)"/><path class="cls-8" d="M647.48,736.72s12.75-.59,15.6,4.42-6.36,16.68-19.15,8.71-4.22-27.31-.33-20.2l3.88,7.08h0Z" transform="translate(-346.54 -160.51)"/><path class="cls-6" d="M652.47,754.26a17.81,17.81,0,0,1-9.45-3c-7.08-4.45-8.35-12-7.18-17.59,0.86-4.08,2.93-6.93,5.28-7.28,0.71-.08,2.6-0.1,4,2.4l3.38,6.17c3.55-.12,13.23.31,16.08,5.3,1.65,2.94.51,7.17-2.77,10.3A13.42,13.42,0,0,1,652.47,754.26Zm-10.9-24.47c-0.37.06-1.7,1.46-2.36,4.45-1,4.52-.05,10.6,5.62,14.16,8,5,13.19,1,14.6-.29,2.29-2.18,2.89-4.84,2.16-6.15-1.7-3-9.48-3.83-14-3.55a1.73,1.73,0,0,1-1.57-.89l-3.88-7.08A1.53,1.53,0,0,0,641.58,729.8Z" transform="translate(-346.54 -160.51)"/><path class="cls-8" d="M688.09,745.41s-1.12,8.8,7,10.7c0,0,2.56-12.59,7.39-5.35s9.66,9.3,17,9.3,12.27,4.89,0,10.48-22-7-22-7,0.08,11.86-12.66,4.88S670,752.27,672,739.76s8.83-12.53,10.86-6.25a75.07,75.07,0,0,0,5.19,11.9h0Z" transform="translate(-346.54 -160.51)"/><path class="cls-6" d="M713.18,773.66c-6.45,0-11.72-3.84-14.63-6.52a7.57,7.57,0,0,1-3.19,4.23c-2.77,1.66-6.6,1.16-11.37-1.45-12.18-6.65-16.13-15.47-13.64-30.44,1.66-10.22,6.06-11.65,7.87-11.78,2.8-.23,5.17,1.81,6.3,5.29a74.55,74.55,0,0,0,5.06,11.59,1.75,1.75,0,0,1,.21,1c0,0.27-.67,6.09,4.08,8.28,0.74-2.61,2.29-6.49,5.06-7,1.77-.35,3.44.65,5,2.94,4.2,6.31,8.28,8.55,15.62,8.55,4.91,0,8.48,1.84,9.09,4.69,0.47,2.17-.6,5.49-8.39,9A16.81,16.81,0,0,1,713.18,773.66Zm-15.71-11.81a1.69,1.69,0,0,1,1.34.66c0.36,0.46,9.09,11.37,20,6.49,5.47-2.5,6.62-4.5,6.47-5.22s-2.29-2-5.76-2c-8.46,0-13.64-2.82-18.46-10.06-0.95-1.43-1.47-1.49-1.48-1.49h0c-0.73.14-2.15,3-2.82,6.23a1.68,1.68,0,0,1-.76,1.09,1.74,1.74,0,0,1-1.3.22c-7.21-1.68-8.62-8.28-8.35-12A76.51,76.51,0,0,1,681.28,734c-0.61-1.87-1.68-3.13-2.8-2.94-1.67.12-3.79,2.94-4.77,8.94-1.87,11.22-.55,20.09,11.91,26.9,3.6,2,6.36,2.48,8,1.52,2.12-1.27,2.16-4.86,2.16-4.89a1.7,1.7,0,0,1,1.14-1.62A1.79,1.79,0,0,1,697.47,761.85Z" transform="translate(-346.54 -160.51)"/><path class="cls-8" d="M688.18,707.5s1,16,11.82,16c0,0,7.23,4.71-1.83,8.18s-28.24-6-10-24.15h0Z" transform="translate(-346.54 -160.51)"/><path class="cls-6" d="M694.07,734c-5,0-10.63-2.23-13.43-6.59-2.18-3.38-4.25-10.61,6.34-21.15a1.7,1.7,0,0,1,1.8-.39,1.72,1.72,0,0,1,1.1,1.49c0,0.14,1.06,14.37,10.12,14.37a1.67,1.67,0,0,1,.93.28c0.39,0.25,3.83,2.59,3.48,5.83-0.23,2.22-2.13,4-5.63,5.36A13.44,13.44,0,0,1,694.07,734ZM687,711.27c-4.68,5.55-5.93,10.56-3.51,14.33,2.87,4.43,9.93,6.07,14.06,4.45,3.09-1.18,3.43-2.23,3.46-2.54,0.08-.76-0.86-1.77-1.6-2.35C691,724.79,688,716.32,687,711.27Z" transform="translate(-346.54 -160.51)"/><path class="cls-8" d="M718.07,731.18c9.23,0.43,10.65-17.26,15.66-12.3s7.08,22.92-4,26.55-23.78-14.81-11.7-14.25h0Z" transform="translate(-346.54 -160.51)"/><path class="cls-6" d="M726.76,747.61c-4.86,0-9.34-3-12-6.11-2.88-3.3-4-6.84-2.79-9.24,0.66-1.38,2.34-3,6.2-2.78h0.23c3.65,0,5.92-4,7.92-7.53,1.62-2.85,3-5.32,5.27-5.63a3.79,3.79,0,0,1,3.36,1.34c3.74,3.71,5.56,12.52,4,19.24-1.23,5.19-4.2,8.69-8.6,10.14A11.43,11.43,0,0,1,726.76,747.61Zm-9.23-14.74c-1.35,0-2.26.31-2.53,0.86-0.45.92,0.2,3.12,2.29,5.52,2.85,3.27,7.64,5.9,12,4.55,4.05-1.33,5.68-4.92,6.34-7.69,1.43-6-.44-13.43-3.06-16a1.47,1.47,0,0,0-.52-0.39c-0.6.16-1.93,2.52-2.74,3.93-2.23,3.92-5.25,9.26-10.86,9.26h-0.87Z" transform="translate(-346.54 -160.51)"/><path class="cls-8" d="M669.05,686.44c4.64,6.45,6.53,9.42,10.87,10.59s-2.9,14.17-15.17,7-0.26-23.91,4.3-17.56h0Z" transform="translate(-346.54 -160.51)"/><path class="cls-6" d="M672,707.87a16.09,16.09,0,0,1-8.07-2.39c-4.6-2.71-6.81-7.11-6.08-12.08,0.7-4.71,4-9.07,7.49-9.92a4.76,4.76,0,0,1,5.14,2l0.9,1.26c3.94,5.48,5.56,7.75,9,8.67a3.37,3.37,0,0,1,2.48,2.8c0.4,2.47-1.39,5.69-4.27,7.66A11.52,11.52,0,0,1,672,707.87Zm-5.44-21.13a1.62,1.62,0,0,0-.42.05c-1.9.45-4.39,3.49-4.92,7.11-0.38,2.54.09,6.09,4.43,8.64,6.54,3.85,10.61,1,12.06-.35,1.7-1.63,1.93-3.24,1.77-3.54-4.61-1.21-6.84-4.31-10.87-9.94l-0.9-1.26h0A1.36,1.36,0,0,0,666.51,686.74Z" transform="translate(-346.54 -160.51)"/><path class="cls-8" d="M644.63,651.17s-14.31,7.91-14.31,18.67,3.33,15.17,12.85,4,20.19-22.67,1.46-22.67h0Z" transform="translate(-346.54 -160.51)"/><path class="cls-6" d="M634.45,682.06a4.45,4.45,0,0,1-1.56-.28c-2.91-1.07-4.27-4.86-4.27-11.94,0-11.64,14.57-19.82,15.19-20.17a1.72,1.72,0,0,1,.82-0.21c6.55,0,10.22,1.34,11.54,4.22,2.27,4.92-3.65,11.84-10.5,19.85L644.47,675C640.37,679.75,637.14,682.06,634.45,682.06Zm10.64-29.19c-2.16,1.29-13.06,8.25-13.06,17,0,7.61,1.7,8.62,2,8.74s2.41,0.46,7.81-5.84l1.21-1.42c5.06-5.91,11.35-13.26,10-16.21C652.7,654.3,651.16,652.94,645.09,652.87Z" transform="translate(-346.54 -160.51)"/><path class="cls-8" d="M684.29,626.45s4.87-14.61,18.23-11.62,11.59,5.19,12.82,14.88-3.86,3-13.56,0-12.74-1.27-17.48-3.25h0Z" transform="translate(-346.54 -160.51)"/><path class="cls-6" d="M714.06,636.43c-1.46,0-3.18-.87-5.33-1.94a47.76,47.76,0,0,0-7.45-3.14,43.52,43.52,0,0,0-10.82-2,20,20,0,0,1-6.83-1.35,1.71,1.71,0,0,1-1-2.11c1.85-5.56,8.49-15.41,20.22-12.75,12.22,2.71,13,5.26,13.77,12.92,0.1,1,.21,2.16.36,3.41,0.34,2.62.42,5.21-1.23,6.39A2.91,2.91,0,0,1,714.06,636.43Zm-27.51-11a23.24,23.24,0,0,0,4.15.54,47,47,0,0,1,11.58,2.12,49.58,49.58,0,0,1,8,3.36A18.68,18.68,0,0,0,713.9,633c-0.1-.16,0-1-0.25-3.08-0.17-1.29-.28-2.47-0.39-3.51-0.62-6.45-.72-7.61-11.11-9.92C692.81,614.38,688.16,622,686.55,625.42Z" transform="translate(-346.54 -160.51)"/><path class="cls-8" d="M673.77,632.27s-10.38,3.36-13.61,8.29-12.19,9.49-10.87-8.29,19.89-13,21.46-13.89,16.62,5.6,3,13.89h0Z" transform="translate(-346.54 -160.51)"/><path class="cls-6" d="M653.69,646.71a5,5,0,0,1-1.64-.27c-3.57-1.2-5.06-6-4.45-14.3,1.19-16.05,15.4-15.56,20.72-15.37,0.72,0,1.63,0,1.87,0,1.16-.86,4.12.49,5.3,1.11,1.65,0.86,5.49,3.28,5.62,7.21,0.1,3.05-2.07,5.95-6.45,8.62a1.53,1.53,0,0,1-.36.16c-2.73.89-10.33,4-12.71,7.61C659.76,644.3,656.66,646.71,653.69,646.71Zm12.53-26.57c-7.67,0-14.46,1.9-15.22,12.25-0.54,7.26.76,10.35,2.14,10.82s4-1.19,5.6-3.58c3.3-5,12.77-8.4,14.31-8.92,2.5-1.55,5.25-3.85,4.53-6.19-0.79-2.6-5.1-4.47-6.26-4.54a8.13,8.13,0,0,1-3.13.2C667.53,620.16,666.88,620.14,666.22,620.14Z" transform="translate(-346.54 -160.51)"/><path class="cls-8" d="M960.66,757.89s39.76,1.58,56.91-21.41,6.24-68.14,6.24-68.14-11.69-14.28,11.65-4,15.58,57.84,6.23,67.36-61.76,68.17-99,51.51S908,717,909.77,702.56s3.16-49.27,32.9-58.78a38.44,38.44,0,0,1,14.89,0s-8.77,1.58-14.89,7.94-16.25,21.71-14.7,50.84,8.57,52.15,32.7,55.34h0Z" transform="translate(-346.54 -160.51)"/><path class="cls-4" d="M957.05,787.94A36.52,36.52,0,0,1,942,784.81c-39.78-17.76-35.2-71.82-33.89-82.47,0.15-1.18.29-2.49,0.46-3.92,1.83-16.5,5.27-47.21,33.6-56.28a38.93,38.93,0,0,1,15.72,0,1.7,1.7,0,0,1,1.4,1.67,1.74,1.74,0,0,1-1.4,1.68c-0.09,0-8.32,1.58-14,7.44-4.81,5-15.81,19.77-14.23,49.57,1.85,34.52,11.45,51.1,31.14,53.73,1.93,0.08,39.32.82,55.4-20.72,15.66-21,7-62.06,6-66.36-1.36-1.72-4.38-6.11-2.39-8.73s6.77-1.76,16.31,2.44c7.88,3.47,13.18,11.24,15.34,22.47,3.45,18-1.87,40.8-8.59,47.64l-2.23,2.32C1007.23,770.29,979.17,787.94,957.05,787.94Zm-7.57-143.16a31.66,31.66,0,0,0-6.43.65c-26.13,8.36-29.39,37.65-31.14,53.38-0.17,1.44-.31,2.77-0.46,4-1.28,10.23-5.69,62.16,31.89,78.93,22.47,10,54.35-6.37,94.86-48.81l2.27-2.35c5.35-5.44,11-27,7.68-44.61-1.36-7-4.76-16.2-13.38-20-10.37-4.58-12.16-3.49-12.24-3.45-0.12.56,1.13,3,2.6,4.79a1.87,1.87,0,0,1,.34.68c0.45,1.88,10.85,46.19-6.54,69.55s-56.72,22.16-58.34,22.1l-0.15,0c-27.79-3.67-32.86-32.35-34.17-56.94-1.66-31.14,10-46.83,15.15-52.12A28.88,28.88,0,0,1,949.49,644.78Z" transform="translate(-346.54 -160.51)"/><path class="cls-8" d="M993.25,638.75s-46.75-2.43-64.49-14.1a164,164,0,0,1,60.46,0l4,14.1h0Z" transform="translate(-346.54 -160.51)"/><path class="cls-9" d="M995.54,640.58l-2.39-.12c-1.93-.1-47.41-2.59-65.34-14.37l-3.36-2.21,3.93-.88a166.73,166.73,0,0,1,61.16,0l1,0.2ZM933.73,625.5c16.63,8,48.29,10.77,57.22,11.4l-3.08-10.76A166.43,166.43,0,0,0,933.73,625.5Z" transform="translate(-346.54 -160.51)"/><path class="cls-8" d="M1003,624.88s-4.7-27.3,25.08-64.83v48c0,7.05,2.35,19.38,4.7,23.36s30.52,25.07,32.88,32.38-47-4.72-50.9-12.53-21.94,0-21.94,0V631.46s-29-14.1-32.92-23.36,29.78-7.59,32.92-5.15S1003,624.88,1003,624.88h0Z" transform="translate(-346.54 -160.51)"/><path class="cls-9" d="M1061,667.75c-12.95,0-44.35-8.88-47.77-15.68-2.57-5.16-15.41-1-19.73.8l-2.39,1V632.52c-5.66-2.82-29-14.86-32.78-23.76a4.78,4.78,0,0,1,1.65-6c6.43-5,30.52-3.78,33.89-1.19,2,1.55,5,8.11,7.34,13.87,1-11.31,5.84-31.64,25.52-56.47l3.05-3.84V608.1c0,7,2.37,19,4.45,22.5,0.74,1.25,5.75,5.56,10.57,9.73,11.82,10.19,21,18.35,22.46,23a3,3,0,0,1-2,3.87A12.11,12.11,0,0,1,1061,667.75Zm-53.72-21.63c3.82,0,7.32,1.09,9,4.42s16.31,8.95,31.34,12.1c10.73,2.26,15.11,1.88,16.31,1.42-1.8-4.3-13.52-14.41-21.33-21.16-6.55-5.65-10.31-8.93-11.28-10.59-2.62-4.43-4.95-17.24-4.95-24.22v-43c-25.52,34.36-21.73,59.27-21.69,59.53l-3.28.86c-3.38-9.36-7.89-19.85-9.62-21.17-2.45-1.63-24.72-3-29.83,1.29a1.36,1.36,0,0,0-.48,1.86c3,7.11,24.2,18.64,32.09,22.49l1,0.47V648.8C997.5,647.71,1002.62,646.12,1007.26,646.12Z" transform="translate(-346.54 -160.51)"/><path class="cls-8" d="M1026.68,630.56s14.8-7.91,23.78-7.91,15.43-8.89,15.43-8.89-4.88-10.6-10.47-9.74-35.14,19.39-35.14,19.39l6.39,7.16h0Z" transform="translate(-346.54 -160.51)"/><path class="cls-9" d="M1026.29,632.69l-8.63-9.66,1.71-1.07c3.05-1.92,30-18.77,35.81-19.63,6.52-1,11.7,9.52,12.25,10.72l0.43,0.9-0.6.81c-0.28.39-7.09,9.59-16.8,9.59-8.46,0-22.84,7.63-23,7.71Zm-3.39-8.92,4.16,4.67c3.78-1.9,15.51-7.49,23.4-7.49,6.47,0,11.67-5.36,13.41-7.41-1.45-2.78-4.76-7.86-7.78-7.86a2.23,2.23,0,0,0-.4,0C1052,606.24,1034.69,616.43,1022.9,623.76Z" transform="translate(-346.54 -160.51)"/><path class="cls-10" d="M466.5,1096.33H402.07V1186c18.45,2.41,40,5,64.43,7.72v-97.41h0Z" transform="translate(-346.54 -160.51)"/><path class="cls-11" d="M487.23,1219.62H466.5v-25.88c-24.4-2.69-46-5.31-64.43-7.72v217.73H466.5V1257.85h20.73v145.89h64.44V1202c-23-2-44.52-4-64.44-6.1v23.69h0Z" transform="translate(-346.54 -160.51)"/><path class="cls-10" d="M487.23,1096.33v99.6c19.92,2.07,41.44,4.15,64.44,6.1v-105.7H487.23Z" transform="translate(-346.54 -160.51)"/><path class="cls-11" d="M677.51,1261h-20v-51.4q-31.37-1.82-60.37-3.94c-0.12,1.64-.23,3.24-0.23,5v145.88c0,40.32,31.59,54.25,70.58,54.25s70.58-13.93,70.58-54.25v-48h-60.6v55.38a10,10,0,1,1-20,0v-66.32h80.56V1213.4q-31.21-1.13-60.6-2.71V1261h0Z" transform="translate(-346.54 -160.51)"/><path class="cls-10" d="M667.53,1156.44c-37.3,0-67.74,12.79-70.35,49.21q29,2.1,60.37,3.94v-8.7a10,10,0,1,1,20,0v9.8q29.36,1.56,60.6,2.71v-2.76c0-40.28-31.58-54.2-70.58-54.2h0Z" transform="translate(-346.54 -160.51)"/><path class="cls-10" d="M885.44,1156.44a81.36,81.36,0,0,0-21.5,2.49c-7.87,2.15-13.05,5.57-16.12,9.58v-12.07h-66v58.38c21.45,0.53,43.45,1,66,1.21v-23.46a9.72,9.72,0,0,1,6.14-2.24,10.07,10.07,0,0,1,10,10.15v15.66q30.86,0.18,62.91-.16v-17.44c0-23.26-18.54-42.11-41.41-42.11h0Z" transform="translate(-346.54 -160.51)"/><path class="cls-11" d="M863.94,1216.14v44h62.91V1216q-32,.35-62.91.16h0Z" transform="translate(-346.54 -160.51)"/><path class="cls-11" d="M781.85,1403.75h66V1216c-22.52-.23-44.52-0.68-66-1.21v188.93h0Z" transform="translate(-346.54 -160.51)"/><path class="cls-12" d="M1097.93,1136.4v-40.07H969.06v119q31.72-.7,64.44-1.92v-77h64.43Z" transform="translate(-346.54 -160.51)"/><path class="cls-6" d="M969.06,1403.75h128.87v-35.91H1033.5V1256.92h58.68v-37.3H1033.5v-6.23q-32.7,1.26-64.44,1.93v188.43h0Z" transform="translate(-346.54 -160.51)"/><path class="cls-6" d="M1140.92,1237.72a47.67,47.67,0,0,0,3.38,15.69c4.53,11.31,14.89,25,38.57,37.47a203.19,203.19,0,0,1,18.38,10.81c3.27,2.19,6,4.21,8.37,6.12,8.4,6.79,12.12,9,12.12,14.91V1360a10.25,10.25,0,1,1-20.49,0v-52.22h-60.33v47.7c0,40.46,32.28,54.6,72.11,54.6s72.11-14.13,72.11-54.6v-28.76a89,89,0,0,0-1.56-18.94c-3.58-16.54-14.71-27.5-46.52-43.47a106.48,106.48,0,0,1-15.32-9.32c-0.72-.51-1.45-1.06-2.1-1.61-13.16-10.33-18.39-16.12-18.39-26.89v-22.7c0-.29.08-0.52,0.08-0.76q-30.45,2.58-60.44,4.6c0,8.36-.07,27.76,0,30.05h0Z" transform="translate(-346.54 -160.51)"/><path class="cls-6" d="M1221.4,1201.27a10.71,10.71,0,0,1,.34,2.55v49.59h63.4v-49.53a64.67,64.67,0,0,0-.65-8.93c-21.18,2.29-42.22,4.44-63.09,6.31h0Z" transform="translate(-346.54 -160.51)"/><path class="cls-12" d="M1213,1149.26c-39.83,0-72.11,14.11-72.11,54.62,0,0,0,1.49,0,3.78q30-2,60.45-4.6a10.17,10.17,0,0,1,20.07-1.79c20.87-1.87,41.91-4,63.09-6.32-4.49-33.63-34.74-45.69-71.46-45.69h0Z" transform="translate(-346.54 -160.51)"/></svg>